<svg width="32" height="32" viewBox="0 0 32 32" fill="none" xmlns="http://www.w3.org/2000/svg">
<g clip-path="url(#clip0_155_43)">
<path d="M12.0274 22.842C12.0274 22.9388 11.9161 23.0162 11.7758 23.0162C11.616 23.0307 11.5048 22.9534 11.5048 22.842C11.5048 22.7453 11.6161 22.6678 11.7565 22.6678C11.9016 22.6533 12.0274 22.7307 12.0274 22.842ZM10.5226 22.6242C10.4887 22.7211 10.5855 22.8323 10.7306 22.8613C10.8564 22.9097 11.0016 22.8613 11.0306 22.7646C11.0597 22.6678 10.9678 22.5565 10.8226 22.5129C10.6968 22.4791 10.5565 22.5275 10.5226 22.6242ZM12.6613 22.542C12.521 22.5759 12.4242 22.6678 12.4386 22.779C12.4532 22.8758 12.579 22.9388 12.7242 22.9049C12.8645 22.871 12.9613 22.779 12.9468 22.6823C12.9322 22.5903 12.8016 22.5275 12.6613 22.542ZM15.8451 4C9.13378 4 4 9.09512 4 15.8065C4 21.1727 7.37734 25.7646 12.2016 27.3808C12.821 27.4921 13.0387 27.1098 13.0387 26.7952C13.0387 26.4952 13.0242 24.8403 13.0242 23.8243C13.0242 23.8243 9.63705 24.5501 8.92576 22.3823C8.92576 22.3823 8.37418 20.9742 7.58061 20.6113C7.58061 20.6113 6.47253 19.8517 7.65803 19.8662C7.65803 19.8662 8.86294 19.963 9.52582 21.1146C10.5855 22.9824 12.3613 22.4453 13.0532 22.1259C13.1645 21.3517 13.479 20.8146 13.8274 20.4953C11.1226 20.1953 8.39353 19.8033 8.39353 15.1485C8.39353 13.8179 8.76126 13.1501 9.53552 12.2985C9.40973 11.984 8.99839 10.6873 9.66131 9.013C10.6726 8.69849 12.9999 10.3195 12.9999 10.3195C13.9678 10.0485 15.0081 9.9082 16.0387 9.9082C17.0694 9.9082 18.1097 10.0485 19.0773 10.3195C19.0773 10.3195 21.4049 8.69369 22.4161 9.013C23.079 10.692 22.6677 11.984 22.542 12.2985C23.3162 13.1549 23.7903 13.8226 23.7903 15.1485C23.7903 19.8179 20.9403 20.1904 18.2355 20.4953C18.6807 20.8774 19.058 21.6033 19.058 22.7404C19.058 24.371 19.0436 26.3889 19.0436 26.7855C19.0436 27.1 19.2662 27.4823 19.8807 27.3711C24.7194 25.7647 28 21.1727 28 15.8066C28 9.09512 22.5565 4 15.8451 4ZM8.70324 20.6888C8.64032 20.7372 8.65482 20.8485 8.73699 20.9403C8.81442 21.0177 8.92571 21.0516 8.98863 20.9888C9.0515 20.9403 9.037 20.8291 8.95477 20.7372C8.8774 20.6597 8.76616 20.6259 8.70324 20.6888ZM8.18061 20.2969C8.1468 20.3597 8.19511 20.4371 8.29195 20.4855C8.36932 20.534 8.46616 20.5194 8.50002 20.4517C8.53383 20.3888 8.48551 20.3114 8.38873 20.2629C8.29195 20.2339 8.21442 20.2484 8.18061 20.2969ZM9.74839 22.0193C9.67102 22.0823 9.70002 22.2275 9.81126 22.3193C9.92255 22.4307 10.0628 22.4452 10.1258 22.3677C10.1886 22.3049 10.1596 22.1597 10.0628 22.0678C9.95641 21.9565 9.81126 21.942 9.74839 22.0193ZM9.19675 21.3081C9.11933 21.3565 9.11933 21.4822 9.19675 21.5935C9.27418 21.7049 9.40482 21.7532 9.46769 21.7049C9.54507 21.642 9.54507 21.5162 9.46769 21.4049C9.39997 21.2936 9.27423 21.2452 9.19675 21.3081Z" fill="#DDDDDD"/>
</g>
<defs>
<clipPath id="clip0_155_43">
<rect width="24" height="24" fill="white" transform="translate(4 4)"/>
</clipPath>
</defs>
</svg>
