<svg width="32" height="32" viewBox="0 0 32 32" fill="none" xmlns="http://www.w3.org/2000/svg">
<path d="M4.30434 12.1556H9.44783V27H4.30434V12.1556ZM6.91051 5C5.15011 5 4 6.10837 4 7.56315C4 8.98801 5.11646 10.1286 6.8432 10.1286H6.876C8.67006 10.1286 9.78731 8.98795 9.78731 7.56315C9.75366 6.10837 8.67011 5 6.91051 5ZM22.0765 11.8069C19.3463 11.8069 18.1231 13.2471 17.4408 14.2571V12.1556H12.2958C12.3639 13.5482 12.2958 27 12.2958 27H17.4408V18.7099C17.4408 18.2659 17.4745 17.8235 17.6098 17.5054C17.9823 16.619 18.8289 15.7012 20.2488 15.7012C22.1118 15.7012 22.8558 17.0631 22.8558 19.0577V26.9999H28V18.4879C28 13.9284 25.4627 11.8069 22.0765 11.8069Z" fill="#DDDDDD"/>
</svg>
