<svg width="32" height="32" viewBox="0 0 32 32" fill="none" xmlns="http://www.w3.org/2000/svg">
<g clip-path="url(#clip0_155_48)">
<path d="M10.4376 5.62503C11.3275 5.62424 12.2002 5.87093 12.958 6.33755L13.5005 6.67755L14.1356 6.54255C15.7349 6.20334 17.3938 6.27161 18.9598 6.74109C20.5258 7.21057 21.9486 8.06619 23.0974 9.22927C24.2462 10.3923 25.0841 11.8256 25.534 13.3971C25.984 14.9686 26.0315 16.6281 25.6723 18.2228L25.5423 18.8053L25.8198 19.3328C26.182 20.0202 26.37 20.7859 26.3674 21.5628C26.3672 22.3975 26.15 23.2177 25.737 23.943C25.324 24.6683 24.7295 25.2738 24.0117 25.6999C23.294 26.126 22.4778 26.3582 21.6432 26.3737C20.8086 26.3891 19.9844 26.1872 19.2514 25.7879L18.7363 25.5004L18.1512 25.6204C16.5784 25.9447 14.9499 25.8756 13.4102 25.4193C11.8706 24.9629 10.4675 24.1335 9.32555 23.0045C8.18362 21.8756 7.33819 20.4822 6.86438 18.948C6.39056 17.4138 6.30302 15.7863 6.60953 14.2102L6.73205 13.5727L6.38199 13.0252C5.91731 12.2981 5.6568 11.4594 5.62776 10.597C5.59871 9.73463 5.80221 8.88032 6.21691 8.12362C6.63162 7.36691 7.24227 6.73568 7.98485 6.29608C8.72743 5.85648 9.57461 5.6247 10.4376 5.62503ZM10.4376 4C9.28288 3.99971 8.14937 4.31004 7.15588 4.89845C6.16239 5.48687 5.34553 6.3317 4.79093 7.34437C4.23633 8.35704 3.96443 9.50025 4.00373 10.6541C4.04303 11.808 4.39208 12.9301 5.01429 13.9027C4.6571 15.7417 4.75956 17.6404 5.31259 19.4302C5.86561 21.2201 6.85208 22.8457 8.18441 24.1628C9.51675 25.4799 11.1537 26.4476 12.95 26.9802C14.7463 27.5127 16.6462 27.5935 18.4813 27.2154C19.6936 27.8759 21.0861 28.1291 22.4534 27.9379C23.8207 27.7467 25.0903 27.1211 26.0748 26.1535C27.0594 25.1858 27.7069 23.9274 27.9216 22.5638C28.1364 21.2002 27.9071 19.8036 27.2675 18.5803C27.687 16.7198 27.6317 14.7837 27.1069 12.9502C26.5821 11.1166 25.6045 9.4445 24.2641 8.08762C22.9238 6.73073 21.2636 5.73268 19.4365 5.18527C17.6093 4.63786 15.6738 4.55869 13.8081 4.95502C12.7952 4.32973 11.628 3.99903 10.4376 4Z" fill="#DDDDDD"/>
<path d="M10.8815 12.6867C10.8815 9.61467 13.4901 8.5 15.9242 8.5C19.6967 8.5 20.5526 11.124 20.7518 11.876C20.8719 12.324 20.5254 13.612 19.4838 13.476C18.4422 13.34 18.2995 11.6093 16.2707 10.9373C15.648 10.7347 13.6418 11.0307 13.6418 12.4093C13.6418 13.636 17.0383 14.2387 18.7071 14.9987C20.4552 15.7987 21.25 16.9027 21.25 18.78C21.25 22.588 17.7584 23.5 16.3137 23.5C11.7442 23.5 10.7524 19.7667 10.7524 19.1347C10.742 18.9459 10.7651 18.7565 10.8203 18.5788C10.8755 18.4012 10.9616 18.239 11.0731 18.1027C11.1845 17.9664 11.3189 17.859 11.4676 17.7874C11.6163 17.7157 11.7761 17.6814 11.9367 17.6867C13.5104 17.6867 12.9058 20.9613 15.9242 20.9613C18.295 20.9613 18.5328 19.668 18.5328 19.0333C18.5328 17.2067 14.3958 16.572 14.3958 16.572C14.3958 16.572 10.8815 15.9213 10.8815 12.6867Z" fill="#DDDDDD"/>
</g>
<defs>
<clipPath id="clip0_155_48">
<rect width="24" height="24" fill="white" transform="translate(4 4)"/>
</clipPath>
</defs>
</svg>
