<svg width="32" height="32" viewBox="0 0 32 32" fill="none" xmlns="http://www.w3.org/2000/svg">
<g clip-path="url(#clip0_155_53)">
<path d="M26.3594 6.05593L4.62442 14.4667C4.61148 14.4717 4.59895 14.4777 4.58692 14.4845C4.41067 14.5844 3.18067 15.3367 4.91504 16.0112L4.93285 16.0178L10.1083 17.6898C10.1478 17.7027 10.1896 17.7067 10.2308 17.7017C10.272 17.6967 10.3117 17.6827 10.3469 17.6608L23.1836 9.65171C23.2151 9.63207 23.2502 9.61885 23.2868 9.61281C23.4654 9.58328 23.9796 9.52796 23.6543 9.94093C23.2863 10.4097 14.5183 18.2669 13.5452 19.1383C13.4891 19.1887 13.4544 19.2586 13.4482 19.3337L13.0235 24.3962C13.0234 24.4478 13.0354 24.4987 13.0584 24.5448C13.0814 24.5909 13.1149 24.6311 13.1561 24.662C13.2146 24.6989 13.2835 24.716 13.3524 24.7107C13.4214 24.7055 13.4868 24.6782 13.5391 24.633L16.6141 21.8847C16.6627 21.8413 16.7246 21.8158 16.7897 21.8125C16.8548 21.8092 16.919 21.8282 16.9718 21.8664L22.3366 25.7617L22.3539 25.7734C22.4838 25.8536 23.8863 26.6697 24.2913 24.8472L27.9944 7.23859C27.9996 7.18281 28.0497 6.56968 27.6114 6.20734C27.1511 5.82859 26.4996 6.01984 26.4016 6.04046C26.3871 6.04449 26.373 6.04966 26.3594 6.05593Z" fill="#DDDDDD"/>
</g>
<defs>
<clipPath id="clip0_155_53">
<rect width="24" height="24" fill="white" transform="translate(4 4)"/>
</clipPath>
</defs>
</svg>
